<svg id="SvgjsSvg1001" width="288" height="288" xmlns="http://www.w3.org/2000/svg" version="1.1" xmlns:xlink="http://www.w3.org/1999/xlink" xmlns:svgjs="http://svgjs.com/svgjs"><defs id="SvgjsDefs1002"></defs><g id="SvgjsG1008"><svg xmlns="http://www.w3.org/2000/svg" version="1.0" viewBox="0 0 80 80" width="288" height="288"><g transform="matrix(.1 0 0 -.1 0 80)" fill="#ff0000" class="color000 svgShape"><path d="M315 721 c-92 -24 -173 -90 -215 -176 -19 -41 -24 -66 -24 -135 -1-78 2 -90 33 -148 38 -70 70 -101 145 -140 42 -21 65 -26 131 -26 67 -1 89 3
139 27 32 15 74 43 92 63 l34 35 0 -56 c0 -46 4 -60 25 -80 24 -25 65 -34 65
-15 0 6 -7 10 -15 10 -8 0 -24 9 -35 20 -28 28 -27 129 1 213 36 105 12 223
-65 314 -43 51 -136 94 -213 98 -38 2 -81 1 -98 -4z m209 -45 c105 -51 161
-144 161 -266 0 -85 -21 -142 -74 -203 -82 -92 -237 -121 -353 -64 -160 79
-215 278 -118 430 80 126 246 170 384 103z" fill="#ff0000" class="color000 svgShape"></path><path d="M380 670c0-5 5-10 10-10 6 0 10 5 10 10 0 6-4 10-10 10-5 0-10-4-10-10zM280 650c0-5 5-10 10-10 6 0 10 5 10 10 0 6-4 10-10 10-5 0-10-4-10-10zM480 650c0-5 5-10 10-10 6 0 10 5 10 10 0 6-4 10-10 10-5 0-10-4-10-10zM350 610c-11-11-20-29-20-40 0-11 9-29 20-40 11-11 29-20 40-20 26 0 60 34 60 60 0 11-9 29-20 40-11 11-29 20-40 20-11 0-29-9-40-20zm70-15c26-32-13-81-47-59-23 14-28 41-13 59 16 19 44 19 60 0zM200 589c0-5 5-7 10-4 6 3 10 8 10 11 0 2-4 4-10 4-5 0-10-5-10-11zM565 590c3-5 8-10 11-10 2 0 4 5 4 10 0 6-5 10-11 10-5 0-7-4-4-10zM140 510c0-5 5-10 10-10 6 0 10 5 10 10 0 6-4 10-10 10-5 0-10-4-10-10zM200 500c-11-11-20-29-20-40 0-26 34-60 60-60 26 0 60 34 60 60 0 11-9 29-20 40-11 11-29 20-40 20-11 0-29-9-40-20zm70-15c26-32-13-81-47-59-23 14-28 41-13 59 16 19 44 19 60 0zM500 500c-11-11-20-29-20-40 0-11 9-29 20-40 11-11 29-20 40-20 26 0 60 34 60 60 0 11-9 29-20 40-11 11-29 20-40 20-11 0-29-9-40-20zm70-15c26-32-13-81-47-59-23 14-28 41-13 59 16 19 44 19 60 0zM620 510c0-5 5-10 10-10 6 0 10 5 10 10 0 6-4 10-10 10-5 0-10-4-10-10zM374 419c-10-17 13-36 27-22 12 12 4 33-11 33-5 0-12-5-16-11zM120 410c0-5 5-10 10-10 6 0 10 5 10 10 0 6-4 10-10 10-5 0-10-4-10-10zM640 410c0-5 5-10 10-10 6 0 10 5 10 10 0 6-4 10-10 10-5 0-10-4-10-10zM260 320c-11-11-20-29-20-40 0-26 34-60 60-60 26 0 60 34 60 60 0 11-9 29-20 40-11 11-29 20-40 20-11 0-29-9-40-20zm70-15c15-18 10-45-12-59-35-22-74 27-48 59 16 19 44 19 60 0zM440 320c-11-11-20-29-20-40 0-11 9-29 20-40 11-11 29-20 40-20 26 0 60 34 60 60 0 11-9 29-20 40-11 11-29 20-40 20-11 0-29-9-40-20zm70-15c15-18 10-45-12-59-35-22-74 27-48 59 16 19 44 19 60 0zM140 310c0-5 5-10 10-10 6 0 10 5 10 10 0 6-4 10-10 10-5 0-10-4-10-10zM620 310c0-5 5-10 10-10 6 0 10 5 10 10 0 6-4 10-10 10-5 0-10-4-10-10zM200 230c0-5 5-10 11-10 5 0 7 5 4 10-3 6-8 10-11 10-2 0-4-4-4-10zM565 230c-3-5-1-10 4-10 6 0 11 5 11 10 0 6-2 10-4 10-3 0-8-4-11-10zM280 170c0-5 5-10 10-10 6 0 10 5 10 10 0 6-4 10-10 10-5 0-10-4-10-10zM480 170c0-5 5-10 10-10 6 0 10 5 10 10 0 6-4 10-10 10-5 0-10-4-10-10zM380 150c0-5 5-10 10-10 6 0 10 5 10 10 0 6-4 10-10 10-5 0-10-4-10-10z" fill="#ff0000" class="color000 svgShape"></path></g></svg></g></svg>